<svg id="Layer_1"  data-name="Layer 1" xmlns="http://www.w3.org/2000/svg" viewBox="0 0 500 80.63"><defs><style>.cls-1{fill-rule:evenodd;}</style></defs><path class="cls-1" d="M290.26,533.32c-17.51,0-32.45-15.88-32.45-33.19s14.63-33.45,32.32-33.45c11.63,0,20,5.63,26.82,14.44h8.56c-2.56-4.62-5.31-8.87-9.5-12.19a41.64,41.64,0,0,0-25.75-9.25,40.32,40.32,0,1,0,25,71.76c4.44-3.56,7.56-8.19,10.56-12.94h-8.56c-6.75,8.82-15.38,14.82-27,14.82Z" transform="translate(-250 -459.68)"/><path class="cls-1" d="M379,491.12c-5.38-6.93-12.69-11.31-21.76-11.31a29.51,29.51,0,1,0,0,59c9.44,0,16-3.94,21.76-11.19h0v9.87h7.06V481.18H379v9.94Zm-22.13,41.2c-12.44,0-22.25-10.82-22.25-23s9.75-23,22.25-23,22.13,10.88,22.13,23-9.75,23-22.13,23Z" transform="translate(-250 -459.68)"/><polygon class="cls-1" points="144.64 77.82 152.21 77.82 152.21 1.63 144.64 1.63 144.64 77.82 144.64 77.82 144.64 77.82"/><polygon class="cls-1" points="180.77 68.88 161.65 21.5 154.15 21.5 177.09 77.82 184.71 77.82 207.59 21.5 200.21 21.5 180.77 68.88 180.77 68.88 180.77 68.88"/><polygon class="cls-1" points="210.71 77.82 218.28 77.82 218.28 21.5 210.71 21.5 210.71 77.82 210.71 77.82 210.71 77.82"/><polygon class="cls-1" points="210.71 14.25 218.28 14.25 218.28 1.63 210.71 1.63 210.71 14.25 210.71 14.25 210.71 14.25"/><path class="cls-1" d="M500.84,479.81c-7.12,0-12.18,3.75-16.87,8.75h0v-7.38h-7V537.5h7.43V503.19h0A16.86,16.86,0,0,1,501,486.31c11.44,0,17.19,9.94,17.19,20.19h0v31h7v-31h0c0-14.63-8.56-26.69-24.32-26.69Z" transform="translate(-250 -459.68)"/><polygon class="cls-1" points="345.36 1.63 310.98 45.32 310.98 1.63 303.54 1.63 303.54 77.82 310.98 77.82 310.98 56.88 320.73 44.76 345.54 77.82 354.98 77.82 325.48 38.76 354.98 1.63 345.36 1.63 345.36 1.63 345.36 1.63"/><polygon class="cls-1" points="357.73 77.82 365.11 77.82 365.11 1.63 357.73 1.63 357.73 77.82 357.73 77.82 357.73 77.82"/><path class="cls-1" d="M676.18,495.37A29.9,29.9,0,0,0,650,479.81c-16.13,0-29.76,13.44-29.76,29.57s13.76,29.44,29.88,29.44a30.42,30.42,0,0,0,20.82-8.38c3.37-3.19,5.37-7.19,7.19-11.38h-7.94c-4,7.82-11.07,13.26-20.19,13.26a22.49,22.49,0,0,1-15.13-6.07c-4.25-3.87-6.13-8.62-6.94-14.25h52c0-5.87-.82-11.5-3.69-16.63Zm-48,10.13c2.25-10.56,10.57-19.19,21.94-19.19,9.57,0,19.82,5.88,22.07,19.19h-44Z" transform="translate(-250 -459.68)"/><polygon class="cls-1" points="435.37 77.82 442.81 77.82 442.81 21.5 435.37 21.5 435.37 77.82 435.37 77.82 435.37 77.82"/><polygon class="cls-1" points="435.37 14.5 442.81 14.5 442.81 1.63 435.37 1.63 435.37 14.5 435.37 14.5 435.37 14.5"/><path class="cls-1" d="M725.5,479.81c-7.25,0-12.32,3.75-17.07,8.75h0v-7.38h-7.12V537.5h7.5V503.19h0a17,17,0,0,1,16.81-16.88c11.38,0,17.38,9.94,17.38,20.19h0v31h7v-31h0c0-14.63-8.69-26.69-24.5-26.69Z" transform="translate(-250 -459.68)"/></svg>