<?xml version="1.0" encoding="utf-8"?>
<!-- Generator: Adobe Illustrator 19.2.1, SVG Export Plug-In . SVG Version: 6.00 Build 0)  -->
<svg version="1.1" id="layer" xmlns="http://www.w3.org/2000/svg" xmlns:xlink="http://www.w3.org/1999/xlink" x="0px" y="0px"
	 viewBox="0 0 652 652" style="enable-background:new 0 0 652 652;" xml:space="preserve">
<style type="text/css">
	.st0{fill-rule:evenodd;clip-rule:evenodd;}
</style>
<path class="st0" d="M506.8,199.8l88.9,242.4h30.8v1.8h-97.9v-1.8h28.8l-29.2-79.7h-59.3v0l0.3,0.9c2.4,7,3.6,14.4,3.5,21.8v29.9
	c0,15.4,6.8,31,19.7,31c7.6,0,13.7-2.7,20.9-9.3l1,1c-7.9,8.3-17.4,11.8-31.6,11.8c-10.8,0-20-2.6-27.4-7.7l-1.4-1
	c-9.8-7.4-16.1-19.4-18.8-35.9l-0.4-2.6l-0.4-4l0-0.7l-16.4,44.5H441v1.8h-48.6v-1.8h23.5l18-48.9v-0.1c-0.2-2.9-0.3-5.8-0.3-8.7
	v-21.3C433.5,337,414,322,380,322h-33.4v120.3h29v1.7H262.3v-1.7h28.8l-29.2-79.7h-81.1l-29,78.8l1.2-0.2
	c38-6.6,55.5-35.6,55.8-66.1h1.8v69H26.5l136.6-234.4h-55c-45.5,0-66.1,35.2-66.5,70.2H40v-72h165.9l-1,1.8L69.2,442.2h71.3
	c1.8,0,3.6-0.1,5.3-0.2c1.2-0.1,2.4-0.2,3.6-0.4l0.4,0l88.9-242h1.8l0.1,0.2l69.9,190.5V209.6h-28.8v-1.8h99
	c47.6,0,80.8,24.4,80.8,59.4c0,25.5-22.7,46.7-56.6,52.7l-6.2,0.8l6.2,0.6c20.5,2.3,36.8,8.7,48.4,18.8l0.1,0.1L505,199.6h1.8
	L506.8,199.8z M468,360.3l0.2,0.4h59.4L487.6,252l-32.8,89.4l0.2,0.2l1.7,1.7C461.5,348.2,465.3,354,468,360.3L468,360.3z
	 M346.6,320.2V209.6h25.5c34.1,0,52.1,20,52.1,58c0,40.4-10.3,52.7-44.2,52.7H346.6z M221.4,252l-40,108.8h79.9L221.4,252z
	 M221.4,252"/>
</svg>
